<?xml version="1.0" encoding="utf-8"?>
<!-- Generator: Adobe Illustrator 23.0.6, SVG Export Plug-In . SVG Version: 6.00 Build 0)  -->
<svg version="1.1" xmlns="http://www.w3.org/2000/svg" xmlns:xlink="http://www.w3.org/1999/xlink" x="0px" y="0px"
	 viewBox="0 0 142.697 164.199" style="enable-background:new 0 0 142.697 164.199;" xml:space="preserve">
<style type="text/css">
	.st0{fill:#FFFFFF;}
	.st1{display:none;}
</style>
<g id="Norway">
	<path class="st0" d="M32.435,102.206c0,0-15.542,5.354-21.808,17.446s2.747,32.395,4.526,33.647
		c1.779,1.252,5.759,6.252,9.86,2.777s10.611-9.09,11.586-12.836c0.975-3.746,0.211,5.052,5.056,5.848c0,0-0.189-1.317,1.879-9.502
		c2.068-8.185,3.826-2.424,1.018-28.075c0,0-2.851-16.332,8.479-13.538c0,0,3.151-5.624-1.411-6.299c0,0,5.884-7.398,4.269-17.582
		c0,0,7.997-3.756,8.916-11.098l-1.372-4.548l5.577-8.483l2.831,1.631l1.241-7.043l8.439,2.179c0,0,2.508-4.085,2.053-8.885
		c0,0,4.835-5.766,6.182-3.125c0,0,1.901,9.722,7.297,8.538c0,0,1.693-0.19,3.478-2.596c0,0,6.654,8.185,8.26-1.07
		c0,0-0.066-13.07,3.968-13.805c0,0,3.138,1.383,5.537-2.084c0,0,12.08,7.072,5.585,13.464c0,0,6.495-2.569,6.35-8.185
		c0,0,2.552-2.708-7.282-6.056c0,0,9.202,1.061,11.308-2.828c0,0-5.994-9.328-10.589-7.846c0,0-16.846-9.282-42.555,9.959
		c0,0-13.801,12.056-14.284,19.643c0,0-3.929-2.877-8.456,1.919s-1.277,13.402-1.277,13.402S37.067,88.016,32.435,102.206z"/>
</g>
<g id="Copyright" class="st1">
	<text transform="matrix(1 0 0 1 399.3719 554.4917)" style="display:inline; font-family:'Roboto-Regular'; font-size:14px;">© Vemaps.com</text>
</g>
</svg>
